# xmcd CD database file
#
# Track frame offsets:
#	150
#	28740
#	54562
#	83759
#	112319
#	129426
#	158938
#	184400
#	214962
#	241504
#	266929
#	288731
#	317403
#
# Disc length: 4680 seconds
#
# Revision: 0
# Processed by: cddbd v1.5.2PL0 Copyright (c) Steve Scherf et al.
# Submitted via: ACXtractor (MTCDDB.DLL V2003.07.15)
#
DISCID=c312460d
DTITLE=Crimson Blues - Live at Higher Power - Disc 1
DYEAR=2014
DGENRE=Blues
TTITLE0=I Know, I Know, I Know
TTITLE1=Who Do You Love
TTITLE2=Do You Ever Talk To Jesus
TTITLE3=One Way Ticket
TTITLE4=You Can't Bribe The Judge
TTITLE5=If I Leave This World Tomorrow
TTITLE6=John The Revelator
TTITLE7=Shelter From The Storm
TTITLE8=Sing To God A New Song
TTITLE9=Further On Down The Road
TTITLE10=Goin' Down
TTITLE11=Come On Home
TTITLE12=Crossroads
EXTD=ID3G:   0 YEAR: 2014
EXTT0=
EXTT1=
EXTT2=
EXTT3=
EXTT4=
EXTT5=
EXTT6=
EXTT7=
EXTT8=
EXTT9=
EXTT10=
EXTT11=
EXTT12=
PLAYORDER=
